# xmcd CD Database Entry
#
# Track frame offsets:
# 150
# 25805
# 46282
# 64311
# 80253
# 102569
# 124661
# 141161
# 155522
# 176788
# 204917
#
# Disc length: 3007 seconds
#
# Revision: 1
# Processed by: cddbd v1.4PL0 Copyright (c) Steve Scherf et al.
# Submitted via: tcd 2.0b
#
DISCID=950bbd0b
DTITLE=Ricardo Matsuda - Dança das Estações
DYEAR=1900
DGENRE=
TTITLE0=O Canto do Povo do Vale (Primavera Chegou)
TTITLE1=Coqueiral
TTITLE2=Akatombo
TTITLE3=Invernal
TTITLE4=Latina
TTITLE5=Marcha da Praia
TTITLE6=Outrora
TTITLE7=Aleijadinho
TTITLE8=Bõya
TTITLE9=Outono
TTITLE10=O Pequeno Tigre
EXTD=
EXTT0=
EXTT1=
EXTT2=
EXTT3=
EXTT4=
EXTT5=
EXTT6=
EXTT7=
EXTT8=
EXTT9=
EXTT10=
PLAYORDER=
